<svg width="147" height="133" viewBox="0 0 147 133" fill="none" xmlns="http://www.w3.org/2000/svg">
<path d="M145.72 119.923L117.134 91.3364C119.923 84.3642 118.528 75.3002 112.253 69.7224C105.978 63.4474 96.9142 62.053 89.2447 65.5391L102.492 78.7864L92.7308 88.5475L78.7864 74.603C75.3002 82.2725 76.6947 91.3364 82.9697 98.3086C89.2447 104.584 97.6114 105.978 104.584 103.189L133.17 131.775C134.564 133.17 136.656 133.17 137.353 131.775L144.325 124.803C146.417 122.711 146.417 120.62 145.72 119.923ZM76.6947 111.556H0V97.6114C0 82.2725 25.1001 69.7224 55.7779 69.7224C59.2641 69.7224 62.7502 69.7224 65.5391 70.4197C63.4474 74.603 62.7502 78.7863 62.7502 83.6669C62.7502 94.8225 68.328 105.281 76.6947 111.556ZM55.7779 0C40.439 0 27.889 12.55 27.889 27.889C27.889 43.2279 40.439 55.7779 55.7779 55.7779C71.1169 55.7779 83.6669 43.2279 83.6669 27.889C83.6669 12.55 71.1169 0 55.7779 0Z" fill="#ACACAC"/>
</svg>
